<svg xmlns="http://www.w3.org/2000/svg" xmlns:xlink="http://www.w3.org/1999/xlink" id="Group_5835" data-name="Group 5835" width="386.496" height="74.887" viewBox="0 0 386.496 74.887"><defs><clipPath id="clip-path"><rect id="Rectangle_788" data-name="Rectangle 788" width="386.496" height="74.887" fill="none"></rect></clipPath></defs><g id="Group_5834" data-name="Group 5834" clip-path="url(#clip-path)"><path id="Path_12473" data-name="Path 12473" d="M24.491.17c-5.644.109-8.66.6-11.719,5.819-2.253,3.843-1.46,43.36-1.469,43.471a5.014,5.014,0,0,1-4.518,4.505L0,54.684v20.2H73.351v-20.2l-6.785-.718a5.014,5.014,0,0,1-4.518-4.505q-.013-.166-.013-.314V18.24a3.65,3.65,0,0,1,2.141-3.325l9.543-4.325V0Zm20.519,68.2-38.975.467v-7.4c5.39-.244,11.269-2.175,11.316-8.036.095-11.493.022-22.99.007-34.485h.034c.079-3.032-.238-6.881,1.281-9.444.991-1.673,2.072-2.66,4.013-2.66l22.323-.466Z" transform="translate(0 -0.001)" fill="#e6ba6f"></path><path id="Path_12474" data-name="Path 12474" d="M419.036,99.322l5.858-1.1V63.078l-5.858-1.1V56.488h19.4c11.349,0,16.109,5.417,16.109,14.351v1.025c0,5.931-2.709,9.959-7.614,11.863v.145a8.318,8.318,0,0,1,1.9,3.368l4.393,11.2,4.759.879v5.492H447.96L440.71,86.8A2.466,2.466,0,0,0,438,85.045h-5.784V98.224l5.857,1.1v5.492H419.036Zm13.181-36.611V79.553h6.3c6.077,0,8.714-2.489,8.714-7.469v-.731c0-6.444-2.929-8.641-9.518-8.641Z" transform="translate(-331.286 -44.659)" fill="#e6ba6f"></path><path id="Path_12475" data-name="Path 12475" d="M635.715,87.166l5.858,1.1v5.491H622.536V88.265l5.858-1.1V62.27l-5.125-1.1V55.68h12.446ZM632.055,42.5c2.637,0,4.467,1.464,4.467,4.174,0,2.636-1.83,4.1-4.467,4.1-2.709,0-4.54-1.464-4.54-4.1,0-2.71,1.831-4.174,4.54-4.174" transform="translate(-492.171 -33.601)" fill="#e6ba6f"></path><path id="Path_12476" data-name="Path 12476" d="M729.262,110.927l-4.247,1.1L729.7,127.4l2.2,8.787h.585l2.2-8.787,4.613-15.376-4.174-1.1v-5.492h15.816v5.492l-4.394,1.1-9.591,31.485h-9.518l-9.666-31.485-4.32-1.1v-5.492h15.816Z" transform="translate(-564.043 -83.356)" fill="#e6ba6f"></path><path id="Path_12477" data-name="Path 12477" d="M906.443,123.72c0,7.981,2.928,11.128,9.884,11.128a26.42,26.42,0,0,0,8.64-1.83l.806.439c0,.221.366,2.783.585,4.98a23.58,23.58,0,0,1-11.422,2.636c-10.251,0-15.815-5.858-15.815-18.817v-2.564c0-11.642,6.223-18.452,15.01-18.452h.366c8.127,0,13.179,4.98,13.179,15.158v1.17a49.157,49.157,0,0,1-.585,6.152Zm0-5.492H920.72v-2.562c0-6.3-2.782-8.2-6.37-8.2h-.365c-3.955,0-7.542,2.782-7.542,9.372Z" transform="translate(-710.836 -80.039)" fill="#e6ba6f"></path><path id="Path_12478" data-name="Path 12478" d="M1071.1,106.513h.073a10.093,10.093,0,0,1,9.372-5.273,13.647,13.647,0,0,1,2.051.219l-.587,6.371-.952.585a10.223,10.223,0,0,0-2.049-.219,7.633,7.633,0,0,0-6.956,4.028V133.6l6.589,1.1v5.492h-19.037V134.7l5.125-1.1V108.709l-5.125-1.1v-5.492h9.519Z" transform="translate(-837.714 -80.039)" fill="#e6ba6f"></path><path id="Path_12479" data-name="Path 12479" d="M1183.385,99.322l5.858-1.1V63.078l-5.858-1.1V56.488h19.038c9.886,0,15.01,4.979,15.01,15.6v2.71c0,9.3-5.346,13.545-13.546,13.545h-7.322v9.885l7.322,1.1v5.492h-20.5Zm13.181-36.611V82.848h5.638c4.54,0,7.907-2.051,7.907-8.054V72.376c0-6.589-2.636-9.665-8.64-9.665Z" transform="translate(-935.572 -44.659)" fill="#e6ba6f"></path><path id="Path_12480" data-name="Path 12480" d="M1364,112.737v-9.884a41.405,41.405,0,0,1,10.544-1.612c11.642,0,15.741,4.759,15.741,14.645v14.351c0,3.149,1.1,4.467,3.222,4.613l.879.073v4.907a6.909,6.909,0,0,1-4.1,1.245c-3.661,0-6-2.051-6.881-6.078h-.221a12.287,12.287,0,0,1-10.837,6.078c-6.809,0-10.983-5.273-10.983-11.5v-.367c0-6.808,3.587-10.763,10.983-11.715l10.617-1.318v-.512c0-5.419-2.2-8.2-9.445-8.2a24.014,24.014,0,0,0-3.3.294l-.733,4.979Zm18.964,17.061v-8.641l-8.054,1.1c-4.174.587-6.223,2.564-6.223,6.225v.366c0,3.734,2.343,6,5.858,6,3.368,0,6.37-2.343,8.42-5.052" transform="translate(-1076.281 -80.04)" fill="#e6ba6f"></path><path id="Path_12481" data-name="Path 12481" d="M1550.835,106.513h.073a10.094,10.094,0,0,1,9.372-5.273,13.647,13.647,0,0,1,2.051.219l-.587,6.371-.952.585a10.221,10.221,0,0,0-2.049-.219,7.633,7.633,0,0,0-6.956,4.028V133.6l6.589,1.1v5.492h-19.037V134.7l5.125-1.1V108.709l-5.125-1.1v-5.492h9.519Z" transform="translate(-1216.985 -80.039)" fill="#e6ba6f"></path><path id="Path_12482" data-name="Path 12482" d="M1703.372,61.172l-5.419,1.025-8.859,11.788,9.151,13.181,5.859,1.1v5.491h-9.812l-11.423-16.474h-3.807v9.885l5.857,1.1v5.491h-18.306V88.265l5.125-1.1V47.993l-4.759-1.1V42.5h12.082V71.789h3.733l7.47-9.884-3.736-.733V55.68h16.842Z" transform="translate(-1317.608 -33.601)" fill="#e6ba6f"></path></g></svg>