<svg xmlns="http://www.w3.org/2000/svg" xmlns:xlink="http://www.w3.org/1999/xlink" id="Group_5836" data-name="Group 5836" width="545.303" height="105.657" viewBox="0 0 545.303 105.657"><defs><clipPath id="clip-path"><rect id="Rectangle_788" data-name="Rectangle 788" width="545.303" height="105.657" fill="#232323"></rect></clipPath></defs><g id="Group_5834" data-name="Group 5834" clip-path="url(#clip-path)"><path id="Path_12473" data-name="Path 12473" d="M34.554.24c-7.963.154-12.218.841-16.535,8.21-3.179,5.422-2.06,61.177-2.072,61.332a7.074,7.074,0,0,1-6.374,6.357L0,77.152v28.505H103.489V77.152l-9.573-1.013a7.074,7.074,0,0,1-6.374-6.357q-.019-.234-.018-.443v-43.6a5.149,5.149,0,0,1,3.02-4.692l13.464-6.1V0ZM63.505,96.46l-54.99.659V86.673c7.6-.344,15.9-3.069,15.966-11.337.134-16.215.03-32.436.01-48.654h.048c.111-4.278-.336-9.708,1.807-13.324C27.745,11,29.27,9.6,32.009,9.6l31.5-.658Z" transform="translate(0 -0.001)" fill="#232323"></path><path id="Path_12474" data-name="Path 12474" d="M419.036,116.922l8.264-1.55V65.786l-8.264-1.55V56.488h27.377c16.012,0,22.728,7.643,22.728,20.247v1.447c0,8.368-3.822,14.05-10.743,16.737v.2c1.032.827,1.86,2.583,2.685,4.752l6.2,15.807,6.715,1.24v7.749H459.844L449.615,99.257c-.723-1.756-1.653-2.478-3.822-2.478h-8.161v18.594l8.264,1.55v7.749h-26.86Zm18.6-51.654V89.03h8.884c8.574,0,12.294-3.512,12.294-10.538V77.46c0-9.092-4.133-12.191-13.429-12.191Z" transform="translate(-295.23 -39.798)" fill="#232323"></path><path id="Path_12475" data-name="Path 12475" d="M641.13,105.519l8.265,1.55v7.747H622.536v-7.747l8.265-1.55V70.393l-7.231-1.55V61.1h17.56ZM635.966,42.5c3.72,0,6.3,2.066,6.3,5.889,0,3.719-2.581,5.784-6.3,5.784-3.822,0-6.405-2.066-6.405-5.784,0-3.824,2.584-5.889,6.405-5.889" transform="translate(-438.605 -29.944)" fill="#232323"></path><path id="Path_12476" data-name="Path 12476" d="M735.76,113.184l-5.992,1.55,6.611,21.694,3.1,12.4h.825l3.1-12.4,6.508-21.694-5.89-1.55v-7.749H766.34v7.749l-6.2,1.55-13.532,44.421H733.179l-13.638-44.421-6.1-1.55v-7.749H735.76Z" transform="translate(-502.655 -74.284)" fill="#232323"></path><path id="Path_12477" data-name="Path 12477" d="M909.451,132.956c0,11.26,4.131,15.7,13.945,15.7,5.889,0,11.467-2.375,12.191-2.581l1.137.619c0,.312.516,3.927.825,7.026-.309.207-6.405,3.719-16.115,3.719-14.464,0-22.313-8.264-22.313-26.549v-3.618c0-16.426,8.78-26.033,21.178-26.033h.516c11.467,0,18.594,7.026,18.594,21.386v1.651a69.356,69.356,0,0,1-.826,8.679Zm0-7.749H929.6v-3.615c0-8.885-3.925-11.57-8.987-11.57h-.516c-5.58,0-10.642,3.925-10.642,13.223Z" transform="translate(-633.471 -71.328)" fill="#232323"></path><path id="Path_12478" data-name="Path 12478" d="M1075.826,108.679h.1c2.686-4.34,6.405-7.439,13.223-7.439a19.256,19.256,0,0,1,2.893.31l-.828,8.989-1.343.826a14.422,14.422,0,0,0-2.891-.31,10.77,10.77,0,0,0-9.814,5.683V146.9l9.3,1.55V156.2h-26.859v-7.749l7.23-1.55V111.778l-7.23-1.55V102.48h13.43Z" transform="translate(-746.541 -71.328)" fill="#232323"></path><path id="Path_12479" data-name="Path 12479" d="M1183.385,116.922l8.265-1.55V65.786l-8.265-1.55V56.488h26.86c13.948,0,21.178,7.024,21.178,22v3.824c0,13.12-7.542,19.11-19.112,19.11h-10.33v13.947l10.33,1.55v7.749h-28.926Zm18.6-51.654V93.679h7.954c6.405,0,11.156-2.893,11.156-11.364V78.9c0-9.3-3.719-13.636-12.19-13.636Z" transform="translate(-833.748 -39.798)" fill="#232323"></path><path id="Path_12480" data-name="Path 12480" d="M1365.085,117.46V103.515a58.419,58.419,0,0,1,14.876-2.274c16.426,0,22.209,6.715,22.209,20.662V142.15c0,4.442,1.55,6.3,4.546,6.508l1.24.1v6.923a9.748,9.748,0,0,1-5.786,1.756c-5.165,0-8.471-2.893-9.709-8.576h-.311a17.336,17.336,0,0,1-15.289,8.576c-9.607,0-15.5-7.439-15.5-16.219V140.7c0-9.606,5.061-15.185,15.5-16.529l14.98-1.859v-.722c0-7.646-3.1-11.572-13.326-11.572a33.878,33.878,0,0,0-4.65.415l-1.034,7.024Zm26.756,24.071V129.34l-11.364,1.55c-5.889.828-8.781,3.618-8.781,8.782v.516c0,5.268,3.306,8.471,8.265,8.471,4.752,0,8.987-3.306,11.88-7.128" transform="translate(-959.143 -71.329)" fill="#232323"></path><path id="Path_12481" data-name="Path 12481" d="M1555.558,108.679h.1c2.687-4.34,6.405-7.439,13.223-7.439a19.256,19.256,0,0,1,2.893.31l-.828,8.989-1.343.826a14.419,14.419,0,0,0-2.891-.31,10.77,10.77,0,0,0-9.814,5.683V146.9l9.3,1.55V156.2h-26.859v-7.749l7.23-1.55V111.778l-7.23-1.55V102.48h13.43Z" transform="translate(-1084.534 -71.328)" fill="#232323"></path><path id="Path_12482" data-name="Path 12482" d="M1718.475,68.844l-7.646,1.447-12.5,16.632,12.912,18.6,8.266,1.55v7.747h-13.844l-16.116-23.243h-5.371v13.947l8.264,1.55v7.747h-25.827v-7.747l7.23-1.55V50.25l-6.714-1.55V42.5h17.047V83.823h5.267l10.539-13.945-5.27-1.034V61.1h23.762Z" transform="translate(-1174.205 -29.944)" fill="#232323"></path></g></svg>